<?xml version="1.0" encoding="UTF-8"?>
<svg version="1.1" xmlns="http://www.w3.org/2000/svg" width="512" height="512">
<path d="M0 0 C14.18165798 4.87855638 27.54957184 11.53736681 40.0546875 19.79296875 C40.64443359 20.1806543 41.23417969 20.56833984 41.84179688 20.96777344 C51.04513241 27.09496683 59.12800815 34.1070789 67.0546875 41.79296875 C68.21484375 42.89318359 68.21484375 42.89318359 69.3984375 44.015625 C74.11730227 48.58021919 78.14923965 53.52061416 82.0546875 58.79296875 C85.24619265 55.70441537 88.23229122 52.49106545 91.1796875 49.16796875 C115.42845751 22.25143586 145.02265413 4.92410898 180.0546875 -4.20703125 C180.77769043 -4.40055176 181.50069336 -4.59407227 182.24560547 -4.79345703 C192.24620431 -7.35915833 202.34683477 -7.52992778 212.6171875 -7.64453125 C213.91470947 -7.66700928 215.21223145 -7.6894873 216.54907227 -7.71264648 C225.55287221 -7.68984317 232.1963806 -6.64419535 238.8046875 -0.01953125 C239.33578125 0.48964844 239.866875 0.99882813 240.4140625 1.5234375 C245.2370513 8.19523868 246.64215863 14.53253282 246.4453125 22.640625 C246.43965271 23.53792831 246.43399292 24.43523163 246.42816162 25.35972595 C246.40598373 28.1922107 246.35582489 31.02337414 246.3046875 33.85546875 C246.28459837 35.78969512 246.26635186 37.72394155 246.25 39.65820312 C246.20618029 44.37029151 246.13728517 49.08140706 246.0546875 53.79296875 C246.91916504 53.91051514 247.78364258 54.02806152 248.67431641 54.14916992 C261.18758564 55.94342287 273.02465638 59.3258025 281.2421875 69.48046875 C288.84039579 80.72502011 288.64230878 91.17760167 288.61645508 104.33007812 C288.62684 106.4178964 288.63895129 108.50570669 288.65264893 110.59350586 C288.68476233 116.25728925 288.69229972 121.92086628 288.69512391 127.58473015 C288.70202064 133.56715952 288.73062656 139.54948855 288.7565155 145.53186035 C288.79708325 155.61954188 288.82288249 165.70717242 288.83862305 175.79492188 C288.85863306 188.58044602 288.90172149 201.36577403 288.95291615 214.15120697 C288.99738372 225.29165394 289.03138689 236.43213018 289.06358123 247.57261848 C289.07402386 251.07142081 289.08568311 254.57021752 289.09748268 258.0690155 C289.14599859 273.3107431 289.13758992 288.55137832 289.0546875 303.79296875 C289.0491056 304.94249149 289.0435237 306.09201424 289.03777266 307.276371 C289.00100283 314.30602371 288.93919666 321.33477709 288.84463632 328.36389637 C288.81745812 330.57216786 288.79675002 332.78052964 288.78290713 334.98892498 C288.76195144 338.03345226 288.71598609 341.07660488 288.66337585 344.12072754 C288.6622032 345.01609254 288.66103054 345.91145754 288.65982234 346.83395481 C288.5086259 353.24179462 286.80017603 356.8441107 282.3671875 361.60546875 C275.63917526 365.06039395 270.16724507 363.74035112 263.3046875 361.54296875 C227.20730528 350.04281099 188.66646326 355.64338349 155.21508789 372.43554688 C143.97184381 378.30416225 133.76126109 385.58559079 124.68261719 394.44067383 C121.23636712 397.79296875 121.23636712 397.79296875 119.0546875 397.79296875 C118.78785156 398.39109375 118.52101563 398.98921875 118.24609375 399.60546875 C117.02846258 401.84111942 115.86460593 403.09318464 113.9921875 404.79296875 C110.74609174 407.90437174 108.21910715 411.2536736 105.6171875 414.91796875 C101.22780867 420.91303488 97.08542517 424.44938953 90.0546875 426.79296875 C80.80795214 427.57754023 72.76405464 427.53491706 65.0546875 421.79296875 C62.74813873 419.65466236 60.91175514 417.32533372 59.0546875 414.79296875 C45.16066736 396.42125491 28.42198874 382.45291483 8.0546875 371.79296875 C6.89710938 371.18710937 5.73953125 370.58125 4.546875 369.95703125 C-26.82393351 354.15619884 -64.79717401 351.01168317 -98.3203125 361.48046875 C-98.99151123 361.70694092 -99.66270996 361.93341309 -100.35424805 362.16674805 C-104.69543325 363.6039097 -108.37917514 364.1416556 -112.9453125 363.79296875 C-117.796439 361.31984544 -120.42469641 358.5913197 -122.9453125 353.79296875 C-123.52351631 350.15631953 -123.48520939 346.564606 -123.45324707 342.88848877 C-123.45948703 341.78785874 -123.465727 340.68722871 -123.47215605 339.55324626 C-123.48811562 335.86373037 -123.47546936 332.17487241 -123.46289062 328.48535156 C-123.46831055 325.84060741 -123.47528779 323.19590863 -123.48413086 320.55117798 C-123.50191309 314.11160726 -123.49807681 307.67222308 -123.4864803 301.23264506 C-123.47744191 295.99639738 -123.47622373 290.76020192 -123.48057556 285.52394867 C-123.48118849 284.7783013 -123.48180143 284.03265394 -123.48243293 283.2644112 C-123.48371186 281.7495277 -123.48500872 280.23464421 -123.4863233 278.71976075 C-123.49772904 264.51465615 -123.48461715 250.3096548 -123.46312183 236.10456714 C-123.44526553 223.92773254 -123.44834281 211.75105056 -123.46679688 199.57421875 C-123.48822909 185.42569681 -123.49661493 171.27726549 -123.48434782 157.12872958 C-123.48307367 155.61823703 -123.48181619 154.10774447 -123.48057556 152.59725189 C-123.47995846 151.85411917 -123.47934136 151.11098644 -123.47870556 150.34533454 C-123.4752586 145.12012647 -123.48106716 139.89497606 -123.49049377 134.66977692 C-123.50174196 128.29479809 -123.49861542 121.92001614 -123.4773708 115.54505971 C-123.46689566 112.29512302 -123.46484942 109.0455797 -123.47596741 105.79563522 C-123.48692947 102.26522657 -123.47314937 98.73573391 -123.45324707 95.2053833 C-123.46216996 94.18804839 -123.47109284 93.17071349 -123.48028612 92.12255025 C-123.37447653 82.41772712 -120.59595166 74.65981258 -113.8359375 67.6015625 C-113.21203125 67.00472656 -112.588125 66.40789062 -111.9453125 65.79296875 C-111.38328125 65.24769531 -110.82125 64.70242187 -110.2421875 64.140625 C-102.17176654 57.24567839 -91.2221236 54.99090787 -80.9453125 53.79296875 C-80.96625977 52.56255859 -80.98720703 51.33214844 -81.00878906 50.06445312 C-81.08152849 45.47245045 -81.12723521 40.8804981 -81.16503906 36.28808594 C-81.18507747 34.30557676 -81.21231603 32.32312612 -81.24707031 30.34082031 C-81.29593204 27.48097234 -81.31835923 24.62190994 -81.3359375 21.76171875 C-81.35658264 20.8843103 -81.37722778 20.00690186 -81.39849854 19.10290527 C-81.40113129 11.78069903 -79.38794267 6.71055479 -74.6953125 1.10546875 C-55.20630097 -15.28301822 -22.48119631 -7.31553596 0 0 Z " fill="#060606" transform="translate(174.9453125,85.20703125)"/>
<path d="M0 0 C1.20789185 -0.00930542 1.20789185 -0.00930542 2.44018555 -0.01879883 C3.73436401 0.00210815 3.73436401 0.00210815 5.0546875 0.0234375 C5.94905518 0.03286377 6.84342285 0.04229004 7.76489258 0.05200195 C43.81085693 0.85387531 78.10310799 17.97025147 103.9296875 42.3984375 C104.63996094 43.06746094 105.35023438 43.73648438 106.08203125 44.42578125 C110.87019401 49.06689871 114.95511179 54.05390165 118.9296875 59.3984375 C119.41360761 59.93510654 119.89752773 60.47177558 120.39611208 61.02470732 C125.09637974 66.53482505 125.7831562 70.66658196 125.6512146 77.7755127 C125.65634115 78.79506908 125.6614677 79.81462546 125.6667496 80.8650775 C125.67660202 84.26812516 125.64368303 87.66938258 125.61083984 91.07226562 C125.60914677 93.5167639 125.61009862 95.96126522 125.61349487 98.40576172 C125.61485943 103.66163819 125.59788603 108.91711279 125.56406784 114.17286682 C125.51520531 121.77165838 125.49966902 129.37023411 125.49213989 136.96916574 C125.47902372 149.29922809 125.43913672 161.62905162 125.38232422 173.95898438 C125.32720953 185.93293059 125.28475891 197.90681184 125.25927734 209.88085938 C125.257701 210.61953249 125.25612466 211.35820561 125.25450055 212.11926275 C125.24667005 215.82514694 125.23908787 219.53103159 125.23162913 223.23691654 C125.16947741 253.95759716 125.06339377 284.67798099 124.9296875 315.3984375 C123.82631719 314.46828609 122.72519927 313.53546253 121.625 312.6015625 C120.70485107 311.82280762 120.70485107 311.82280762 119.76611328 311.02832031 C118.01536037 309.47447473 116.40562227 307.85465408 114.8046875 306.1484375 C99.25022762 290.3847248 76.91313486 277.15397801 55.9296875 270.3984375 C54.66560059 269.98682373 54.66560059 269.98682373 53.37597656 269.56689453 C36.2049171 264.04657281 19.5727963 260.82855307 1.58544922 259.86669922 C0.75178329 259.82129501 -0.08188263 259.77589081 -0.94081116 259.72911072 C-2.98392849 259.61796733 -5.02711388 259.50807629 -7.0703125 259.3984375 C-7.13870565 226.83662735 -7.19181843 194.27483784 -7.22350849 161.71297229 C-7.22726074 157.87139222 -7.2311437 154.02981229 -7.23510742 150.18823242 C-7.23589435 149.42342197 -7.23668128 148.65861152 -7.23749206 147.870625 C-7.25055678 135.47629837 -7.27421646 123.08201336 -7.30177089 110.68771144 C-7.32979549 97.97619006 -7.34648251 85.26469052 -7.35257798 72.55313951 C-7.35670056 64.70529308 -7.3697354 56.85756427 -7.3940619 49.00975404 C-7.41174925 42.99865513 -7.41368559 36.98765804 -7.40963554 30.97653008 C-7.41046396 28.50573246 -7.41647199 26.03493058 -7.42792892 23.56415939 C-7.44276074 20.20192307 -7.43930005 16.84019815 -7.43107605 13.47795105 C-7.43981457 12.49060681 -7.4485531 11.50326257 -7.45755643 10.48599881 C-7.45158328 9.5882764 -7.44561014 8.69055398 -7.43945599 7.76562786 C-7.44059515 6.98909979 -7.44173431 6.21257171 -7.44290799 5.41251248 C-6.66019235 1.18152197 -4.00075442 0.01896092 0 0 Z " fill="#FBFBFB" transform="translate(122.0703125,98.6015625)"/>
<path d="M0 0 C0.90621094 -0.02223633 1.81242187 -0.04447266 2.74609375 -0.06738281 C4.01453125 -0.06303223 4.01453125 -0.06303223 5.30859375 -0.05859375 C6.05810303 -0.06044678 6.8076123 -0.0622998 7.57983398 -0.06420898 C10.39968592 0.64934793 11.04921806 2.00580176 12.5625 4.4375 C12.93509549 6.56936145 12.93509549 6.56936145 12.93164349 8.91212082 C12.93761663 9.80835088 12.94358978 10.70458095 12.94974393 11.6279695 C12.9410054 12.60850995 12.93226688 13.5890504 12.92326355 14.5993042 C12.92582682 15.64402775 12.9283901 16.6887513 12.93103105 17.76513314 C12.93598484 21.27684577 12.91944932 24.78813146 12.90307617 28.29980469 C12.90223025 30.81267792 12.90270436 33.32555189 12.90440369 35.83842468 C12.90508754 41.2541322 12.89656113 46.66970146 12.87969017 52.08538055 C12.85531354 59.91552068 12.84749628 67.74560837 12.8437262 75.57578233 C12.83715961 88.27955517 12.81719283 100.98327025 12.78881836 113.68701172 C12.76128315 126.02782909 12.74004694 138.36863077 12.72729492 150.70947266 C12.72611267 151.85042212 12.72611267 151.85042212 12.72490653 153.01442108 C12.72099143 156.83027661 12.7172003 160.64613225 12.71347082 164.46198797 C12.68236845 196.12053436 12.62930409 227.7790082 12.5625 259.4375 C11.75731934 259.48237549 10.95213867 259.52725098 10.12255859 259.57348633 C7.06158786 259.74938153 4.00140597 259.93519875 0.94140625 260.12719727 C-1.00477085 260.24646226 -2.95160539 260.35484343 -4.8984375 260.46289062 C-18.04820587 261.30152381 -30.3925213 264.23369933 -43 267.9375 C-44.03962891 268.23269531 -45.07925781 268.52789062 -46.15039062 268.83203125 C-47.15392578 269.12464844 -48.15746094 269.41726563 -49.19140625 269.71875 C-50.08158447 269.97720703 -50.9717627 270.23566406 -51.88891602 270.50195312 C-54.6523873 271.5163819 -56.94887834 272.87598088 -59.4375 274.4375 C-60.86233754 275.01164895 -62.30084004 275.55284872 -63.75 276.0625 C-75.56821117 280.68394974 -86.47358811 287.65512783 -96.4375 295.4375 C-97.28828125 296.09621094 -98.1390625 296.75492187 -99.015625 297.43359375 C-109.15717981 305.03691284 -109.15717981 305.03691284 -117.4375 314.4375 C-118.0975 314.4375 -118.7575 314.4375 -119.4375 314.4375 C-119.64302455 283.17553315 -119.80219519 251.91374572 -119.89708797 220.65126319 C-119.90834368 216.95647253 -119.91999265 213.2616832 -119.93188477 209.56689453 C-119.93424556 208.83136041 -119.93660635 208.09582628 -119.93903869 207.33800325 C-119.97814999 195.44425928 -120.04908254 183.55090873 -120.13187516 171.65739778 C-120.21618115 159.44419036 -120.26605882 147.2311883 -120.28429645 135.01770186 C-120.29661669 127.48729093 -120.33545732 119.9579921 -120.4087482 112.42792371 C-120.46216184 106.64376282 -120.46756131 100.86030691 -120.45546913 95.07594872 C-120.45793776 92.71046051 -120.47574288 90.34492879 -120.51034927 87.97969246 C-120.81084488 66.37545511 -120.81084488 66.37545511 -112.66024685 57.55736923 C-111.92674039 56.85781239 -111.19323393 56.15825554 -110.4375 55.4375 C-109.43950429 54.28457231 -108.44841493 53.12557493 -107.46875 51.95703125 C-104.8029018 49.1060547 -102.12758171 46.26563575 -99.4375 43.4375 C-98.74398438 42.66792969 -98.05046875 41.89835937 -97.3359375 41.10546875 C-90.35217306 33.622864 -81.89331287 28.10794514 -73.4375 22.4375 C-72.58542969 21.8496875 -71.73335938 21.261875 -70.85546875 20.65625 C-50.10241088 7.19480706 -24.55729958 0.34671119 0 0 Z " fill="#FBFBFB" transform="translate(387.4375,98.5625)"/>
<path d="M0 0 C0.00238835 1.04583063 0.00477671 2.09166126 0.00723743 3.16918373 C0.06601193 28.60752839 0.14188207 54.04577817 0.23571491 79.48401833 C0.28069517 91.78572356 0.32010473 104.0873997 0.34643555 116.38916016 C0.36939752 127.11041042 0.40277545 137.83156878 0.44870156 148.55274618 C0.47265798 154.23039517 0.49137094 159.907953 0.49761391 165.5856514 C0.50365376 170.92902728 0.523614 176.27216986 0.55427551 181.61545944 C0.56307335 183.57701753 0.56677472 185.53860608 0.56500816 187.50018311 C0.56335772 190.17834039 0.58003516 192.85578449 0.60127258 195.53384399 C0.59642501 196.3101204 0.59157743 197.0863968 0.58658296 197.88619673 C0.65827213 203.36385014 1.74158197 207.58067687 5.53515625 211.64453125 C9.61754712 214.76635956 11.68677699 216.10864756 16.77734375 216.2109375 C61.42452824 217.39814756 101.63723836 231.53163489 134 263 C134.55107422 263.53061035 135.10214844 264.0612207 135.66992188 264.60791016 C141.77427672 270.50266599 147.65237163 276.31201143 152.53515625 283.29296875 C154.74030315 285.86269994 156.81349777 286.83388969 160.1484375 287.30078125 C161.25058594 287.30658203 161.25058594 287.30658203 162.375 287.3125 C163.10460937 287.32925781 163.83421875 287.34601563 164.5859375 287.36328125 C171.80481886 286.27694473 175.85666797 281.39049688 180.5 276.25 C181.13808594 275.5590625 181.77617187 274.868125 182.43359375 274.15625 C185.41287958 270.91498198 188.32198577 267.63307222 191.1484375 264.2578125 C195.20519474 259.49376492 200.0824816 255.83695844 205 252 C205.9178125 251.26652344 206.835625 250.53304687 207.78125 249.77734375 C236.26885789 227.58987991 269.96025433 216.86563001 305.90551758 216.46557617 C312.1385112 216.33922117 316.83357188 215.88814347 321.64453125 211.5 C325.76133108 206.21287246 326.15011403 202.39905187 326.15821838 195.89460754 C326.16562535 194.64119561 326.16562535 194.64119561 326.17318195 193.36246222 C326.18858326 190.5525973 326.1969247 187.74275527 326.20532227 184.93286133 C326.21489872 182.9225901 326.22490866 180.9123209 326.23532104 178.90205383 C326.26240138 173.43547659 326.28339401 167.96889069 326.30332303 162.50228333 C326.32516329 156.79274043 326.35256156 151.08322431 326.37937927 145.373703 C326.42933269 134.55778114 326.47426169 123.74184443 326.51740164 112.92589349 C326.56675138 100.61406948 326.6216779 88.30227236 326.67708123 75.99047434 C326.79094194 50.6603413 326.89777207 25.33018248 327 0 C328.92685718 0.28980956 330.85239967 0.58836935 332.77734375 0.890625 C333.84976318 1.05594727 334.92218262 1.22126953 336.02709961 1.39160156 C339.82716722 2.16927821 342.1496516 3.36890916 345 6 C348.5037349 11.36933665 348.41692552 16.09900875 348.36076355 22.28842163 C348.36332682 23.32260337 348.3658901 24.35678512 348.36853105 25.4223057 C348.37347096 28.88635087 348.35697212 32.34995985 348.34057617 35.81396484 C348.33972995 38.2975768 348.34020495 40.78118951 348.34190369 43.26480103 C348.34258676 48.61117533 348.33407972 53.95741395 348.31719017 59.3037529 C348.29278685 67.03359381 348.28499354 74.76338163 348.2812262 82.49325688 C348.2746638 95.03508551 348.25470839 107.57685553 348.22631836 120.11865234 C348.19877231 132.30028999 348.1775414 144.48191171 348.16479492 156.66357422 C348.16400675 157.41472076 348.16321858 158.16586731 348.16240653 158.93977587 C348.15849135 162.70813792 348.15470024 166.47650008 348.15097082 170.24486232 C348.1198815 201.49661749 348.06682813 232.74829984 348 264 C344.56185817 263.35755277 341.12460665 262.71046074 337.6875 262.0625 C336.71103516 261.88009766 335.73457031 261.69769531 334.72851562 261.50976562 C333.32182617 261.24389648 333.32182617 261.24389648 331.88671875 260.97265625 C331.02264404 260.81031494 330.15856934 260.64797363 329.26831055 260.48071289 C327 260 327 260 324 259 C321.42745545 258.85476237 318.8830155 258.76432726 316.30859375 258.7265625 C315.5395723 258.71403442 314.77055084 258.70150635 313.97822571 258.68859863 C295.40893708 258.44556005 278.0427925 259.09601173 260 264 C259.15083008 264.22993652 258.30166016 264.45987305 257.42675781 264.69677734 C246.30156552 267.82947896 236.13525713 272.50077687 226 278 C225.08758545 278.48339844 225.08758545 278.48339844 224.15673828 278.9765625 C213.39776799 284.69144874 203.96860753 291.60394712 194.8125 299.625 C192 302 192 302 190 302 C190 302.66 190 303.32 190 304 C188.56640625 305.33984375 188.56640625 305.33984375 186.5625 306.9375 C180.5508985 312.03567795 175.87997941 318.26190428 171.0859375 324.484375 C170.50070312 325.21140625 169.91546875 325.9384375 169.3125 326.6875 C168.56419922 327.65236328 168.56419922 327.65236328 167.80078125 328.63671875 C166 330 166 330 163.03125 330.515625 C160 330 160 330 158.04296875 327.97265625 C157.43066406 327.01230469 156.81835938 326.05195313 156.1875 325.0625 C134.68304661 293.60513458 98.12408346 272.64477956 62 263 C60.91775146 262.67507568 59.83550293 262.35015137 58.72045898 262.01538086 C47.1698887 258.86302035 35.29266356 258.65240361 23.40209961 258.68432617 C20.93624186 258.68750162 18.47157153 258.66385965 16.00585938 258.63867188 C7.42473686 258.60530066 -0.37994618 259.10582044 -8.72436523 261.25708008 C-11.42566832 261.86974053 -13.95958576 262.25655407 -16.70472717 262.5464325 C-17.91335969 262.67559571 -17.91335969 262.67559571 -19.14640903 262.80736828 C-19.75809405 262.87093675 -20.36977907 262.93450521 -21 263 C-21.15972941 231.03292758 -21.2835887 199.06596882 -21.35745731 167.09859052 C-21.36621213 163.32353886 -21.3752724 159.54848798 -21.38452148 155.7734375 C-21.38635766 155.02190106 -21.38819383 154.27036462 -21.39008565 153.49605435 C-21.42053502 141.33133298 -21.47572143 129.16684344 -21.54006957 117.00225955 C-21.60555811 104.51785839 -21.64441729 92.03357854 -21.65861946 79.54901266 C-21.66821875 71.84681629 -21.69852247 64.14527525 -21.75541527 56.44328064 C-21.79683339 50.53480017 -21.80117934 44.62665502 -21.79175377 38.71802521 C-21.79367972 36.29605832 -21.80760657 33.87406664 -21.83443832 31.45224762 C-21.86929805 28.14356462 -21.8608855 24.83767914 -21.84178162 21.52893066 C-21.86217151 20.57171443 -21.8825614 19.61449819 -21.90356916 18.62827539 C-21.805943 12.36791245 -20.2446701 9.12799468 -15.95331627 4.57515478 C-11.16518503 0.71400442 -5.97724988 -0.05931528 0 0 Z " fill="#FBFBFB" transform="translate(94,161)"/>
<path d="M0 0 C7.99597206 6.69050723 14.75404333 13.6416321 21 22 C21.48505308 22.537802 21.97010616 23.07560401 22.46985781 23.62970304 C27.16815977 29.13814094 27.85342114 33.27070658 27.7215271 40.3770752 C27.72665365 41.39663158 27.7317802 42.41618796 27.7370621 43.46664 C27.74691452 46.86968766 27.71399553 50.27094508 27.68115234 53.67382812 C27.67945927 56.1183264 27.68041112 58.56282772 27.68380737 61.00732422 C27.68517193 66.26320069 27.66819853 71.51867529 27.63438034 76.77442932 C27.58551781 84.37322088 27.56998152 91.97179661 27.56245239 99.57072824 C27.54933622 111.90079059 27.50944922 124.23061412 27.45263672 136.56054688 C27.39752203 148.53449309 27.35507141 160.50837434 27.32958984 172.48242188 C27.32722533 173.59043155 27.32722533 173.59043155 27.32481305 174.72082525 C27.31698255 178.42670944 27.30940037 182.13259409 27.30194163 185.83847904 C27.23978991 216.55915966 27.13370627 247.27954349 27 278 C25.89662969 277.06984859 24.79551177 276.13702503 23.6953125 275.203125 C23.08187988 274.68395508 22.46844727 274.16478516 21.83642578 273.62988281 C20.08557919 272.07595409 18.47473276 270.45755855 16.875 268.75 C14.63082883 266.42862111 12.30501968 264.44170798 9.703125 262.54296875 C9.11547363 262.11209961 8.52782227 261.68123047 7.92236328 261.23730469 C6.74422648 260.3853079 5.55526642 259.54803798 4.35498047 258.72753906 C1.74570172 256.84062904 0.16471181 255.63051371 -0.66373444 252.4592371 C-1.09729948 247.99905903 -1.1119719 243.60312054 -1.07556152 239.12486267 C-1.07162683 238.13504428 -1.06769214 237.14522589 -1.06363821 236.125413 C-1.04924216 232.81134897 -1.02752308 229.49737351 -1.00585938 226.18334961 C-0.99407706 223.80637327 -0.98276149 221.42939457 -0.97187805 219.05241394 C-0.94433102 213.26828076 -0.91217287 207.48418606 -0.87822497 201.70008724 C-0.83905039 194.96318933 -0.8065647 188.2262642 -0.77472824 181.48932821 C-0.71783923 169.46902174 -0.65711886 157.44873819 -0.59326172 145.4284668 C-0.58944329 144.70944258 -0.58562487 143.99041837 -0.58169073 143.24960554 C-0.55456056 138.14556983 -0.52729423 133.04153484 -0.5 127.9375 C-0.46881514 122.10538789 -0.43769706 116.27327543 -0.40673828 110.44116211 C-0.40292316 109.72271254 -0.39910804 109.00426296 -0.3951773 108.26404219 C-0.3317005 96.28684368 -0.27222879 84.30962848 -0.2156148 72.33239561 C-0.18365758 65.60913319 -0.14947114 58.88589508 -0.11003113 52.16267204 C-0.07302101 45.84343994 -0.04054759 39.52420141 -0.01158714 33.20492744 C-0.00007271 30.88331783 0.01321003 28.56171622 0.02837181 26.24012756 C0.04879783 23.07613879 0.06296413 19.91218188 0.07556152 16.74815369 C0.08304743 15.82520112 0.09053334 14.90224856 0.0982461 13.95132774 C0.1085771 9.79140553 -0.12376995 6.08120266 -1 2 C-0.67 1.34 -0.34 0.68 0 0 Z " fill="#E6E6E6" transform="translate(220,136)"/>
<path d="M0 0 C0.66 0.33 1.32 0.66 2 1 C2.33 82.84 2.66 164.68 3 249 C4.32 249.33 5.64 249.66 7 250 C3.8090781 252.5800205 0.57160571 255.08463013 -2.70703125 257.55200195 C-8.20471935 261.7066512 -13.30536391 265.93236543 -18 271 C-19.63049114 272.72228823 -21.27268207 274.37138595 -23 276 C-23.66 276 -24.32 276 -25 276 C-25.20552455 244.73803315 -25.36469519 213.47624572 -25.45958797 182.21376319 C-25.47084368 178.51897253 -25.48249265 174.8241832 -25.49438477 171.12939453 C-25.49674556 170.39386041 -25.49910635 169.65832628 -25.50153869 168.90050325 C-25.54064999 157.00675928 -25.61158254 145.11340873 -25.69437516 133.21989778 C-25.77868115 121.00669036 -25.82855882 108.7936883 -25.84679645 96.58020186 C-25.85911669 89.04979093 -25.89795732 81.5204921 -25.9712482 73.99042371 C-26.02466184 68.20626282 -26.03006131 62.42280691 -26.01796913 56.63844872 C-26.02043776 54.27296051 -26.03824288 51.90742879 -26.07284927 49.54219246 C-26.37334144 27.93820284 -26.37334144 27.93820284 -18.23647976 19.13360214 C-17.49844144 18.42951344 -16.76040312 17.72542473 -16 17 C-14.95569266 15.79975315 -13.91796427 14.59370843 -12.890625 13.37890625 C-11.58351563 11.98478516 -11.58351563 11.98478516 -10.25 10.5625 C-9.36828125 9.61503906 -8.4865625 8.66757813 -7.578125 7.69140625 C-5.08597007 5.08974754 -2.55878017 2.53576956 0 0 Z " fill="#E7E6E6" transform="translate(293,137)"/>
<path d="M0 0 C10.38303104 1.9131213 18.47666115 15.38791384 24.17578125 23.54296875 C34.47682774 38.75142926 45.86055873 58.62876093 45.2421875 77.5234375 C44.45582669 81.14069722 42.45893375 82.9795869 39.8125 85.5 C36.78217558 87.01516221 34.16135038 86.67028053 30.8125 86.5 C27.875 85.5 27.875 85.5 25.8125 84.5 C25.73 85.345625 25.6475 86.19125 25.5625 87.0625 C23.87428582 94.80014832 19.37935673 100.23209311 12.8125 104.5 C5.98942752 107.47808246 -0.96200746 108.48368584 -8.1875 106.5 C-16.87414182 102.95176789 -22.41453666 98.30646979 -27.0625 90.25 C-28.1875 87.5 -28.1875 87.5 -28.1875 84.5 C-28.88875 84.83 -29.59 85.16 -30.3125 85.5 C-34.66550869 87.01408998 -37.7384909 87.19157252 -41.9375 85.1875 C-44.47004601 83.28809049 -45.94966911 81.66857294 -46.59375 78.50390625 C-47.59763553 52.36105402 -29.74253399 26.55254431 -12.8984375 8.2265625 C-4.38193372 -0.33902775 -4.38193372 -0.33902775 0 0 Z " fill="#040303" transform="translate(258.1875,1.5)"/>
<path d="M0 0 C2.71040677 3.03977266 4.79386513 6.58334181 7 10 C7.67933594 11.03511719 8.35867188 12.07023437 9.05859375 13.13671875 C17.48787133 26.34630497 26.53257217 44.75473501 25 61 C22.02991904 68.9202159 16.56485821 74.47842807 9 78 C1.97496472 80.69855217 -4.87966677 80.67055687 -11.87109375 77.8359375 C-19.78076898 73.82207246 -25.96831406 68.56005442 -29 60 C-27.71707397 47.5480709 -16.12832468 0 0 0 Z " fill="#FBC10D" transform="translate(259,29)"/>
<path d="M0 0 C13.93650383 3.5279121 34.97338634 14.30842323 42.8125 26.5 C43.37422694 30.83332214 43.11030107 32.95574287 41 36.8125 C38.2898086 40.14216372 36.80272837 41.38789867 32.5 41.875 C27.47436925 41.36391891 24.78148962 39.37169837 21.15234375 35.921875 C12.16504253 27.44976939 1.35169098 23.14474308 -10.50170898 20.36083984 C-15.29371248 19.14488239 -17.60554576 17.73672291 -20.1875 13.5 C-21.24693323 9.54478259 -21.61280021 7.45692547 -19.9375 3.6875 C-15.00672892 -2.47596385 -7.15961659 -1.15878188 0 0 Z " fill="#080808" transform="translate(168.1875,192.5)"/>
<path d="M0 0 C2.6856316 2.00201628 4.64428059 3.64298788 5.5390625 6.9453125 C5.66398912 10.08037565 5.04435559 12.79662073 4.05859375 15.75390625 C0.91103428 19.0922269 -2.65891086 19.72718836 -7.00390625 20.94140625 C-18.82152521 24.43712577 -28.60677914 28.62094236 -37.62890625 37.31640625 C-41.20274675 40.58391757 -43.94390218 42.25978051 -48.8515625 42.36328125 C-52.23076211 41.7009336 -54.32654768 40.30798943 -56.7421875 37.88671875 C-58.60689184 35.01172568 -58.76270138 32.65513472 -58.73828125 29.28515625 C-56.61745237 22.51655344 -50.24978351 18.63931831 -44.69140625 14.81640625 C-43.97017578 14.30464844 -43.24894531 13.79289063 -42.50585938 13.265625 C-35.64431284 8.47792706 -28.71570793 5.03312782 -20.81640625 2.25390625 C-19.64722656 1.83753906 -18.47804688 1.42117187 -17.2734375 0.9921875 C-5.36602881 -2.83468578 -5.36602881 -2.83468578 0 0 Z " fill="#080808" transform="translate(362.00390625,137.05859375)"/>
<path d="M0 0 C2.66513189 1.67760534 3.03406593 3.04257148 3.75 6.1015625 C3.75 13.90276393 3.75 13.90276393 1.44946289 16.66064453 C-1.40191585 19.07823357 -5.0621552 19.50174663 -8.625 20.3515625 C-21.34164933 23.66845257 -31.07632591 29.46053965 -40.88671875 38.0625 C-44.75171343 41.39725574 -47.16136324 41.44655482 -52.25 41.1015625 C-55.03901573 39.86199995 -56.69350587 38.81705496 -58.5625 36.4140625 C-59.59190439 32.95152047 -60.14095743 29.60308749 -59.25 26.1015625 C-55.61000321 20.88942702 -51.13727397 17.55283624 -45.9375 13.9765625 C-45.21626953 13.46480469 -44.49503906 12.95304688 -43.75195312 12.42578125 C-32.37995824 4.49088258 -14.07920172 -5.62190346 0 0 Z " fill="#070707" transform="translate(363.25,192.8984375)"/>
<path d="M0 0 C2.91646127 0.59686038 5.68775141 1.46713748 8.5 2.4375 C9.66305664 2.83412842 9.66305664 2.83412842 10.84960938 3.23876953 C23.1954652 7.65625537 34.17649748 14.329942 44 23 C45.03125 23.804375 46.0625 24.60875 47.125 25.4375 C49.85620505 29.1701469 49.43878219 32.52442165 49 37 C48.34 37 47.68 37 47 37 C46.731875 37.61875 46.46375 38.2375 46.1875 38.875 C45 41 45 41 42 43 C36.21941522 43.65440582 33.50393589 42.5847653 29 39 C28.45214844 38.47921875 27.90429688 37.9584375 27.33984375 37.421875 C18.76323859 29.33692236 8.26081323 25.02500182 -3 22 C-6.66507371 20.87855009 -10.02580436 19.82197757 -13 17.3125 C-14.48303408 13.88298369 -14.54235537 10.6373967 -14 7 C-10.97391232 0.37142699 -6.91136763 -0.68470331 0 0 Z " fill="#070707" transform="translate(162,301)"/>
<path d="M0 0 C1.47206909 0.55022827 1.47206909 0.55022827 2.97387695 1.11157227 C16.64528314 6.32118851 28.36087415 13.37160645 38.25 24.375 C38.87765226 28.32920925 39.2198237 30.72059486 37.1875 34.1875 C35.42382593 36.37109646 33.77660168 38.11169916 31.25 39.375 C25.45264828 39.93243767 22.77551461 38.9769402 18.25 35.375 C17.70214844 34.85421875 17.15429688 34.3334375 16.58984375 33.796875 C8.47590886 26.14807014 -1.03456465 21.82324551 -11.75 19.25 C-21.57889062 16.79533429 -21.57889062 16.79533429 -24.75 12.375 C-25.64358111 8.81854718 -25.68988588 5.92505087 -24.75 2.375 C-18.34832595 -7.11520101 -9.02427932 -3.41490335 0 0 Z " fill="#070707" transform="translate(172.75,139.625)"/>
<path d="M0 0 C2.35094034 1.60365768 3.79207358 3.2908612 4.45703125 6.0859375 C4.61707321 9.33602031 4.08710387 11.87540713 3.05859375 14.9609375 C-0.08464172 18.29467209 -3.65666018 18.97586611 -8.00390625 20.1484375 C-20.72083666 23.64122738 -29.55056463 28.61700183 -39.55859375 37.1953125 C-44.07310549 40.80115255 -47.1513684 41.76449412 -53.00390625 41.1484375 C-56.39330181 39.01164465 -57.72973182 37.9709608 -59.00390625 34.1484375 C-59.69565965 27.11561124 -59.69565965 27.11561124 -56.89453125 23.19921875 C-54.05933805 20.01426809 -50.87590507 17.56427361 -47.37890625 15.1484375 C-46.76063965 14.71764893 -46.14237305 14.28686035 -45.50537109 13.84301758 C-34.10821575 6.01206891 -14.35582716 -6.10052694 0 0 Z " fill="#060606" transform="translate(363.00390625,302.8515625)"/>
<path d="M0 0 C2.125 1.6875 2.125 1.6875 4.125 4.6875 C4.90065384 11.44676916 4.90065384 11.44676916 2.203125 15.76171875 C-1.28291429 19.68405369 -5.6202264 20.48113263 -10.5625 21.6875 C-20.51661071 24.41489781 -27.57247718 27.74732559 -35.37109375 34.625 C-43.51331283 41.77228458 -43.51331283 41.77228458 -49.9375 42.015625 C-53.42698332 41.42466412 -55.42068031 40.25539961 -57.625 37.5 C-59.20423797 33.94671457 -59.28823619 31.54437108 -58.875 27.6875 C-51.47041334 12.99402335 -31.62956049 5.67450968 -16.875 0.6875 C-15.8128125 0.30980469 -14.750625 -0.06789062 -13.65625 -0.45703125 C-8.86124823 -1.93189837 -4.67439258 -2.13396183 0 0 Z " fill="#060606" transform="translate(362.875,247.3125)"/>
<path d="M0 0 C3.3230907 0.86432569 6.01026647 2.33435816 9 4 C10.23489629 4.59561136 11.47355538 5.18345241 12.71484375 5.765625 C21.11510236 9.74180073 28.78445186 14.06694962 36 20 C36.73476562 20.58652344 37.46953125 21.17304688 38.2265625 21.77734375 C41.43080356 24.59222484 43.42687185 26.69612732 43.75 31.0625 C43.28423358 35.57955544 41.4939905 38.07645693 38 41 C34.92158449 42.05820533 32.23630373 42.33399576 29 42 C25.96791932 40.51489926 23.82328003 38.80498492 21.41796875 36.453125 C11.84960098 27.36421793 -0.26982982 22.65747597 -12.98828125 19.88671875 C-15.98380029 19.00476956 -17.19787148 18.49099676 -19 16 C-20.21468687 12.35593938 -20.92134277 8.75412801 -20 5 C-14.68407856 -1.9909382 -7.93808159 -0.88014632 0 0 Z " fill="#070707" transform="translate(168,247)"/>
<path d="M0 0 C0.33 0 0.66 0 1 0 C1 4.62 1 9.24 1 14 C0.34 14 -0.32 14 -1 14 C-1 17.3 -1 20.6 -1 24 C-0.34 24 0.32 24 1 24 C1 24.66 1 25.32 1 26 C1.66 26 2.32 26 3 26 C3 27.32 3 28.64 3 30 C3.66 30 4.32 30 5 30 C5 31.32 5 32.64 5 34 C6.98 34.66 8.96 35.32 11 36 C11 36.66 11 37.32 11 38 C12.98 38 14.96 38 17 38 C17 38.66 17 39.32 17 40 C20.96 40 24.92 40 29 40 C29 39.34 29 38.68 29 38 C30.98 38 32.96 38 35 38 C35 37.34 35 36.68 35 36 C35.66 36 36.32 36 37 36 C37 35.34 37 34.68 37 34 C37.99 33.67 38.98 33.34 40 33 C40.33 30.69 40.66 28.38 41 26 C42.32 26 43.64 26 45 26 C45.66 23.03 46.32 20.06 47 17 C47.66 17 48.32 17 49 17 C49.42512261 24.08537686 47.58312299 28.17963153 43.25 33.625 C38.3683887 39.07172393 32.2642183 42.11829234 25 43 C16.23711935 43.39432963 8.56182794 40.13531558 2.078125 34.2578125 C-0.95786406 30.87614152 -3.47591796 27.30329047 -5 23 C-4.49113178 17.72212324 -3.26266019 12.6805215 -1.9375 7.5625 C-1.75123047 6.83095703 -1.56496094 6.09941406 -1.37304688 5.34570312 C-0.9186242 3.56296802 -0.45977534 1.78136213 0 0 Z " fill="#E4C75A" transform="translate(235,66)"/>
<path d="M0 0 C7.12835982 8.56987259 11.96824182 17.98984105 15.5 28.5 C15.75507324 29.2530542 16.01014648 30.0061084 16.27294922 30.78198242 C17.60840378 34.97905839 18.28211883 38.5425225 18 43 C17.34 43 16.68 43 16 43 C16 40.36 16 37.72 16 35 C15.38125 35.20625 14.7625 35.4125 14.125 35.625 C13.42375 35.74875 12.7225 35.8725 12 36 C11.34 35.34 10.68 34.68 10 34 C9.67 34 9.34 34 9 34 C9 31.69 9 29.38 9 27 C9.99 27 10.98 27 12 27 C11.34 26.01 10.68 25.02 10 24 C10 23.01 10 22.02 10 21 C9.34 21 8.68 21 8 21 C8 20.34 8 19.68 8 19 C7.34 19 6.68 19 6 19 C6 18.34 6 17.68 6 17 C5.34 17 4.68 17 4 17 C3.77213542 14.98177083 3.54427083 12.96354167 3.31640625 10.9453125 C3.08707039 8.92595684 3.08707039 8.92595684 2 7 C1.34 7 0.68 7 0 7 C0 4.69 0 2.38 0 0 Z " fill="#F8CA19" transform="translate(264,37)"/>
<path d="M0 0 C0.66 0 1.32 0 2 0 C2.42512261 7.08537686 0.58312299 11.17963153 -3.75 16.625 C-8.62410085 22.06334405 -14.7418919 25.10341018 -22 26 C-28.4137931 25.5862069 -28.4137931 25.5862069 -31 23 C-26.71 23 -22.42 23 -18 23 C-18 22.34 -18 21.68 -18 21 C-16.02 21 -14.04 21 -12 21 C-12 20.34 -12 19.68 -12 19 C-11.34 19 -10.68 19 -10 19 C-10 18.34 -10 17.68 -10 17 C-9.01 16.67 -8.02 16.34 -7 16 C-6.67 13.69 -6.34 11.38 -6 9 C-4.68 9 -3.36 9 -2 9 C-1.34 6.03 -0.68 3.06 0 0 Z " fill="#E7D16A" transform="translate(282,83)"/>
<path d="M0 0 C4.49069074 1.22473384 6.84373538 2.6182879 10 6 C10.66 6 11.32 6 12 6 C12.66 6.66 13.32 7.32 14 8 C14 7.34 14 6.68 14 6 C14.66 6 15.32 6 16 6 C15.91621094 6.63808594 15.83242188 7.27617188 15.74609375 7.93359375 C15.64425781 8.75988281 15.54242188 9.58617187 15.4375 10.4375 C15.33308594 11.26121094 15.22867187 12.08492187 15.12109375 12.93359375 C15.08113281 13.61550781 15.04117187 14.29742187 15 15 C15.33 15.33 15.66 15.66 16 16 C16.04080783 17.99958364 16.04254356 20.00045254 16 22 C13.41683067 19.59796754 11.49200158 16.96750231 9.5 14.0625 C7.80520983 11.59836429 6.12712427 9.16208344 4.28125 6.80859375 C3 5 3 5 3 3 C2.01 3 1.02 3 0 3 C0 2.01 0 1.02 0 0 Z " fill="#070608" transform="translate(256,26)"/>
<path d="M0 0 C0.99 0 1.98 0 3 0 C4.38671875 1.75 4.38671875 1.75 5.6875 4 C6.34298828 5.11375 6.34298828 5.11375 7.01171875 6.25 C7.50091797 7.11625 7.50091797 7.11625 8 8 C7.01 8.495 7.01 8.495 6 9 C6 8.34 6 7.68 6 7 C5.01 7 4.02 7 3 7 C2.3503125 7.99 2.3503125 7.99 1.6875 9 C1.130625 9.66 0.57375 10.32 0 11 C-3.1875 11.25 -3.1875 11.25 -6 11 C-6 11.66 -6 12.32 -6 13 C-6.66 13 -7.32 13 -8 13 C-8 14.32 -8 15.64 -8 17 C-8.66 17 -9.32 17 -10 17 C-10 17.66 -10 18.32 -10 19 C-10.66 18.67 -11.32 18.34 -12 18 C-3.8009828 3.81162981 -3.8009828 3.81162981 0 0 Z " fill="#EFB81E" transform="translate(256,29)"/>
<path d="M0 0 C0.66 0.33 1.32 0.66 2 1 C-3 6 -3 6 -4.6875 7.5 C-6.1900339 9.04190513 -6.1900339 9.04190513 -7 11.625 C-7.33 12.40875 -7.66 13.1925 -8 14 C-8.99 14.33 -9.98 14.66 -11 15 C-11.66 14.67 -12.32 14.34 -13 14 C-13 14.66 -13 15.32 -13 16 C-13.66 16 -14.32 16 -15 16 C-15.20625 16.721875 -15.4125 17.44375 -15.625 18.1875 C-16.96793494 20.93441238 -17.75137118 21.80159141 -20.0625 23.625 C-23.2107551 25.73408995 -23.2107551 25.73408995 -24 29 C-24.99 29 -25.98 29 -27 29 C-22.22668969 18.14257397 -9.26824865 7.16789014 0 0 Z " fill="#0C0B0A" transform="translate(287,114)"/>
<path d="M0 0 C1.98 0 3.96 0 6 0 C9.44419134 10.37357631 9.44419134 10.37357631 9 16 C8.34 16 7.68 16 7 16 C7 13.36 7 10.72 7 8 C6.38125 8.20625 5.7625 8.4125 5.125 8.625 C4.42375 8.74875 3.7225 8.8725 3 9 C2.34 8.34 1.68 7.68 1 7 C0.67 7 0.34 7 0 7 C0 4.69 0 2.38 0 0 Z " fill="#F6C812" transform="translate(273,64)"/>
<path d="M0 0 C0.33 0 0.66 0 1 0 C1 4.62 1 9.24 1 14 C0.34 14 -0.32 14 -1 14 C-1 17.3 -1 20.6 -1 24 C-1.99 24.33 -2.98 24.66 -4 25 C-5.07064209 20.39623901 -4.75375386 18.28695388 -3 14 C-2.4176812 11.57189089 -1.8778743 9.13329772 -1.375 6.6875 C-1.11460937 5.43324219 -0.85421875 4.17898437 -0.5859375 2.88671875 C-0.39257812 1.93410156 -0.19921875 0.98148437 0 0 Z " fill="#D6AC4B" transform="translate(235,66)"/>
<path d="M0 0 C0.66 0.33 1.32 0.66 2 1 C1.74605469 1.55945312 1.49210938 2.11890625 1.23046875 2.6953125 C-1.88233384 9.9468601 -3.52864026 17.26421469 -5 25 C-5.33 25 -5.66 25 -6 25 C-6 19.72 -6 14.44 -6 9 C-5.34 9 -4.68 9 -4 9 C-3.896875 8.443125 -3.79375 7.88625 -3.6875 7.3125 C-2.86866423 4.55823422 -1.54146219 2.41272343 0 0 Z " fill="#2F1504" transform="translate(238,55)"/>
<path d="M0 0 C0.66 0 1.32 0 2 0 C2.31565274 5.26087893 1.7659748 8.49248551 -1 13 C-2.6875 14.875 -2.6875 14.875 -4 16 C-4.66 15.67 -5.32 15.34 -6 15 C-6 13.02 -6 11.04 -6 9 C-4.68 9 -3.36 9 -2 9 C-1.34 6.03 -0.68 3.06 0 0 Z " fill="#EBD05D" transform="translate(282,83)"/>
<path d="M0 0 C2.33524782 2.25740623 4.18705073 4.2805761 6 7 C9.07921132 7.25660094 11.21136993 7.39431504 14 6 C14.33 6.99 14.66 7.98 15 9 C14.67 9.66 14.34 10.32 14 11 C13.34 11 12.68 11 12 11 C12 10.34 12 9.68 12 9 C8.62537285 9.54723683 6.91765 10.0549 4 12 C3.67 11.01 3.34 10.02 3 9 C2.34 8.67 1.68 8.34 1 8 C1 6.68 1 5.36 1 4 C0.34 4 -0.32 4 -1 4 C-0.67 2.68 -0.34 1.36 0 0 Z " fill="#262626" transform="translate(248,483)"/>
<path d="M0 0 C1.65 0 3.3 0 5 0 C2.69 4.62 0.38 9.24 -2 14 C-2.33 14 -2.66 14 -3 14 C-3.23019182 9.28106769 -2.49273316 5.47819947 -1 1 C-0.67 0.67 -0.34 0.34 0 0 Z " fill="#261106" transform="translate(243,40)"/>
<path d="M0 0 C0 0.66 0 1.32 0 2 C1.98 2 3.96 2 6 2 C6 2.33 6 2.66 6 3 C-6.54 3 -19.08 3 -32 3 C-32 2.67 -32 2.34 -32 2 C-25.74392972 0.94699807 -19.52113474 0.67942343 -13.1875 0.4375 C-12.13884766 0.39431641 -11.09019531 0.35113281 -10.00976562 0.30664062 C-2.46056548 0 -2.46056548 0 0 0 Z " fill="#101010" transform="translate(130,438)"/>
<path d="M0 0 C0.99 0.99 1.98 1.98 3 3 C2.67 3.99 2.34 4.98 2 6 C2.99 5.67 3.98 5.34 5 5 C5.66 3.68 6.32 2.36 7 1 C7 4.63 7 8.26 7 12 C-0.57142857 5.71428571 -0.57142857 5.71428571 -3 2 C-2.01 2 -1.02 2 0 2 C0 1.34 0 0.68 0 0 Z " fill="#DBDBDB" transform="translate(240,402)"/>
<path d="M0 0 C0.33 0 0.66 0 1 0 C1.28211913 4.89006497 1.20444268 7.28284649 -2 11 C-2.70514846 13.14733927 -2.70514846 13.14733927 -3 15 C-3.66 15 -4.32 15 -5 15 C-5 15.99 -5 16.98 -5 18 C-5.66 18 -6.32 18 -7 18 C-6.35534798 13.66695924 -4.81074878 10.13327935 -2.9375 6.1875 C-2.11572266 4.44533203 -2.11572266 4.44533203 -1.27734375 2.66796875 C-0.85582031 1.78753906 -0.43429688 0.90710937 0 0 Z " fill="#E0B53D" transform="translate(243,48)"/>
<path d="M0 0 C1.98 0.66 3.96 1.32 6 2 C6 2.66 6 3.32 6 4 C6.598125 4.28875 7.19625 4.5775 7.8125 4.875 C10 6 10 6 13 8 C12.67 8.99 12.34 9.98 12 11 C7.71 8.03 3.42 5.06 -1 2 C-0.67 1.34 -0.34 0.68 0 0 Z " fill="#D8D8D8" transform="translate(191,146)"/>
<path d="M0 0 C0.66 0.33 1.32 0.66 2 1 C1.54625 1.598125 1.0925 2.19625 0.625 2.8125 C-0.63295913 4.50590652 -1.82984724 6.24477086 -3 8 C-2.67 8.66 -2.34 9.32 -2 10 C-1.3125 13 -1.3125 13 -1 16 C-1.66 16.66 -2.32 17.32 -3 18 C-5.45716226 14.31425661 -5.84398931 10.27730502 -5 6 C-3.55465003 3.61290633 -1.99584939 1.99584939 0 0 Z " fill="#202020" transform="translate(309,323)"/>
<path d="M0 0 C0.66 0 1.32 0 2 0 C1.67 1.32 1.34 2.64 1 4 C0.01 4 -0.98 4 -2 4 C-2 4.66 -2 5.32 -2 6 C-2.66 6 -3.32 6 -4 6 C-4 6.66 -4 7.32 -4 8 C-5.32 8 -6.64 8 -8 8 C-8 6.68 -8 5.36 -8 4 C-7.34 4 -6.68 4 -6 4 C-6 3.34 -6 2.68 -6 2 C-4.02 2 -2.04 2 0 2 C0 1.34 0 0.68 0 0 Z " fill="#EEC929" transform="translate(274,96)"/>
<path d="M0 0 C0.66 0.66 1.32 1.32 2 2 C4.57061311 2.64767793 4.57061311 2.64767793 7 3 C4.8125 5.0625 4.8125 5.0625 2 7 C-0.6875 6.6875 -0.6875 6.6875 -3 6 C-3.99 6.495 -3.99 6.495 -5 7 C-3.70700306 4.11562221 -2.34058637 2.12780579 0 0 Z " fill="#E0E0E0" transform="translate(293,384)"/>
<path d="M0 0 C2.3125 0.1875 2.3125 0.1875 5 1 C7.99179956 4.61079257 8.32120156 7.39611104 8 12 C5.66519748 9.82267683 3.98189226 7.59214897 2.3125 4.875 C1.87550781 4.17117187 1.43851562 3.46734375 0.98828125 2.7421875 C0 1 0 1 0 0 Z " fill="#2A1508" transform="translate(264,36)"/>
<path d="M0 0 C0.33 0.99 0.66 1.98 1 3 C-2.21311475 8.73770492 -2.21311475 8.73770492 -6 10 C-6 10.66 -6 11.32 -6 12 C-6.66 12 -7.32 12 -8 12 C-8 11.34 -8 10.68 -8 10 C-8.99 9.67 -9.98 9.34 -11 9 C-9.6696875 8.443125 -9.6696875 8.443125 -8.3125 7.875 C-4.41600116 5.66943462 -2.67369422 3.53871294 0 0 Z " fill="#E0E0E0" transform="translate(419,368)"/>
<path d="M0 0 C1.24546405 2.49092811 0.7767578 3.41080733 0 6 C-0.66 6 -1.32 6 -2 6 C-2 6.66 -2 7.32 -2 8 C-2.66 8 -3.32 8 -4 8 C-4 8.66 -4 9.32 -4 10 C-4.66 10 -5.32 10 -6 10 C-6 11.32 -6 12.64 -6 14 C-6.66 14 -7.32 14 -8 14 C-8 14.66 -8 15.32 -8 16 C-8.66 15.67 -9.32 15.34 -10 15 C-3.84965831 4.44191344 -3.84965831 4.44191344 0 0 Z " fill="#D2A54C" transform="translate(254,32)"/>
<path d="M0 0 C0.66 0 1.32 0 2 0 C2.33 1.32 2.66 2.64 3 4 C-1.95 6.475 -1.95 6.475 -7 9 C-7 8.01 -7 7.02 -7 6 C-5.46875 4.6484375 -5.46875 4.6484375 -3.5 3.375 C-2.32044287 2.60267093 -1.15005991 1.81560371 0 1 C0 0.67 0 0.34 0 0 Z " fill="#F0F0F0" transform="translate(329,305)"/>
<path d="M0 0 C0.33 0.99 0.66 1.98 1 3 C-5.07439825 8.88183807 -5.07439825 8.88183807 -8.9375 9.375 C-9.618125 9.25125 -10.29875 9.1275 -11 9 C-9.68 8.34 -8.36 7.68 -7 7 C-7 6.34 -7 5.68 -7 5 C-6.34 5 -5.68 5 -5 5 C-5 4.34 -5 3.68 -5 3 C-2.5 1.375 -2.5 1.375 0 0 Z " fill="#F1DF7C" transform="translate(277,97)"/>
<path d="M0 0 C0.99 0.33 1.98 0.66 3 1 C2.67 2.32 2.34 3.64 2 5 C-1.05263664 5.98120464 -2.94736336 5.98120464 -6 5 C-2.25 1.125 -2.25 1.125 0 0 Z " fill="#090909" transform="translate(109,80)"/>
<path d="M0 0 C1.98 0.99 3.96 1.98 6 3 C6 5.64 6 8.28 6 11 C2.1334716 7.777893 1.11940982 4.85077588 0 0 Z " fill="#1A1A1A" transform="translate(361,139)"/>
<path d="M0 0 C3.465 1.485 3.465 1.485 7 3 C6.01 3.495 6.01 3.495 5 4 C5 5.32 5 6.64 5 8 C4.01 8.33 3.02 8.66 2 9 C2 8.34 2 7.68 2 7 C1.01 6.67 0.02 6.34 -1 6 C-0.34 6 0.32 6 1 6 C0.67 4.02 0.34 2.04 0 0 Z " fill="#090909" transform="translate(197,95)"/>
<path d="M0 0 C5.75 1.75 5.75 1.75 8 4 C8.125 7.125 8.125 7.125 8 10 C6.29115995 8.37660195 4.62553283 6.70680947 3 5 C3 4.34 3 3.68 3 3 C2.01 3 1.02 3 0 3 C0 2.01 0 1.02 0 0 Z " fill="#261105" transform="translate(256,26)"/>
<path d="M0 0 C0.66 1.32 1.32 2.64 2 4 C-0.31 6.97 -2.62 9.94 -5 13 C-5.33 11.68 -5.66 10.36 -6 9 C-5.34 9 -4.68 9 -4 9 C-4 8.34 -4 7.68 -4 7 C-3.34 7 -2.68 7 -2 7 C-2.061875 5.824375 -2.061875 5.824375 -2.125 4.625 C-2 2 -2 2 0 0 Z " fill="#291305" transform="translate(254,27)"/>
<path d="M0 0 C0.66 0.33 1.32 0.66 2 1 C0.76058615 4.71824156 -0.9233963 5.67378745 -4 8 C-4.66 8.66 -5.32 9.32 -6 10 C-6.66 9.34 -7.32 8.68 -8 8 C-5.36 5.36 -2.72 2.72 0 0 Z " fill="#DCDCDC" transform="translate(293,137)"/>
<path d="M0 0 C2.84927902 5.29151818 4.28788143 9.95448991 4 16 C3.34 16 2.68 16 2 16 C2 13.36 2 10.72 2 8 C1.34 8 0.68 8 0 8 C0 5.36 0 2.72 0 0 Z " fill="#D0B14E" transform="translate(278,64)"/>
<path d="M0 0 C3.40198926 4.04998722 6 8.63626649 6 14 C5.34 14 4.68 14 4 14 C0.99778216 9.49667324 -0.31896025 5.42232421 0 0 Z " fill="#D4B04E" transform="translate(272,50)"/>
<path d="M0 0 C2.95749791 3.46741134 5.07848152 6.86873527 7 11 C4.525 10.01 4.525 10.01 2 9 C2 8.34 2 7.68 2 7 C1.34 7 0.68 7 0 7 C0 4.69 0 2.38 0 0 Z " fill="#DEB73B" transform="translate(264,37)"/>
<path d="M0 0 C1.12588014 0.95729916 2.2506715 1.91587895 3.375 2.875 C4.00148437 3.40867187 4.62796875 3.94234375 5.2734375 4.4921875 C6.55836651 5.61432007 7.79371975 6.79371975 9 8 C8.34 8.66 7.68 9.32 7 10 C5.84775972 9.07038578 4.70340824 8.1309875 3.5625 7.1875 C2.60537109 6.40439453 2.60537109 6.40439453 1.62890625 5.60546875 C0 4 0 4 -1 1 C-0.67 0.67 -0.34 0.34 0 0 Z " fill="#0B0B0B" transform="translate(236,499)"/>
<path d="M0 0 C3.3 0.99 6.6 1.98 10 3 C10.33 2.01 10.66 1.02 11 0 C12.65 0 14.3 0 16 0 C14.4375 2 14.4375 2 12 4 C7.43577549 4.4979154 4.12241328 3.99874583 0 2 C0 1.34 0 0.68 0 0 Z " fill="#1E1C11" transform="translate(284,84)"/>
<path d="M0 0 C0.99 0 1.98 0 3 0 C4.38671875 1.75 4.38671875 1.75 5.6875 4 C6.12449219 4.7425 6.56148438 5.485 7.01171875 6.25 C7.33785156 6.8275 7.66398437 7.405 8 8 C7.01 8.495 7.01 8.495 6 9 C6 8.34 6 7.68 6 7 C4.68 6.67 3.36 6.34 2 6 C2 5.01 2 4.02 2 3 C1.01 2.67 0.02 2.34 -1 2 C-0.67 1.34 -0.34 0.68 0 0 Z " fill="#D7B154" transform="translate(256,29)"/>
<path d="M0 0 C0 3 0 3 -1 5 C-1.66 5 -2.32 5 -3 5 C-3 5.66 -3 6.32 -3 7 C-4.32 6.34 -5.64 5.68 -7 5 C-4.53846154 1.18461538 -4.53846154 1.18461538 -1.8125 0.25 C-1.214375 0.1675 -0.61625 0.085 0 0 Z " fill="#D4D4D4" transform="translate(277,158)"/>
<path d="M0 0 C0 0.66 0 1.32 0 2 C-0.66 2 -1.32 2 -2 2 C-2.33 2.66 -2.66 3.32 -3 4 C-2.67 4.33 -2.34 4.66 -2 5 C-2.66 6.32 -3.32 7.64 -4 9 C-7 7 -7 7 -8 4 C-2.25 0 -2.25 0 0 0 Z " fill="#0E0C0B" transform="translate(306,102)"/>
<path d="M0 0 C0.99 0.33 1.98 0.66 3 1 C2.67 2.32 2.34 3.64 2 5 C-0.64 5 -3.28 5 -6 5 C-4.06745228 2.9754262 -2.36841312 1.57894208 0 0 Z " fill="#E1E1E1" transform="translate(317,119)"/>
<path d="M0 0 C0.66 0.33 1.32 0.66 2 1 C2 1.66 2 2.32 2 3 C1.34 3 0.68 3 0 3 C0 5.64 0 8.28 0 11 C-0.66 11 -1.32 11 -2 11 C-2 7.7 -2 4.4 -2 1 C-1.34 0.67 -0.68 0.34 0 0 Z " fill="#F5B71C" transform="translate(236,79)"/>
<path d="M0 0 C3.19902639 -0.08886184 5.92677456 0.08941469 9 1 C8.67 1.99 8.34 2.98 8 4 C6.02 4 4.04 4 2 4 C1.34 2.68 0.68 1.36 0 0 Z " fill="#EBEBEB" transform="translate(252,487)"/>
<path d="M0 0 C4.455 0.99 4.455 0.99 9 2 C8.01 2.33 7.02 2.66 6 3 C5.67 3.99 5.34 4.98 5 6 C4.01 6.33 3.02 6.66 2 7 C1.67 6.01 1.34 5.02 1 4 C1.33 3.67 1.66 3.34 2 3 C1.34 2.67 0.68 2.34 0 2 C0 1.34 0 0.68 0 0 Z " fill="#EAEAEA" transform="translate(307,232)"/>
<path d="M0 0 C0.33 0.66 0.66 1.32 1 2 C-0.28062485 3.7074998 -1.61767557 5.37373596 -3 7 C-3.66 7 -4.32 7 -5 7 C-5.33 7.66 -5.66 8.32 -6 9 C-6.66 8.34 -7.32 7.68 -8 7 C-7.01 6.67 -6.02 6.34 -5 6 C-5 5.34 -5 4.68 -5 4 C-3.37373596 2.61767557 -1.7074998 1.28062485 0 0 Z " fill="#222222" transform="translate(289,459)"/>
<path d="M0 0 C0.66 1.32 1.32 2.64 2 4 C0.02 4.99 0.02 4.99 -2 6 C-2.66 5.34 -3.32 4.68 -4 4 C-2.68 2.68 -1.36 1.36 0 0 Z M-6 5 C-5.34 5.33 -4.68 5.66 -4 6 C-5.32 6.99 -6.64 7.98 -8 9 C-7.34 7.68 -6.68 6.36 -6 5 Z " fill="#1D1D1D" transform="translate(313,265)"/>
<path d="M0 0 C0.99 0 1.98 0 3 0 C4.75 2.25 4.75 2.25 6 5 C5.6875 7.3125 5.6875 7.3125 5 9 C4.01 8.34 3.02 7.68 2 7 C2.66 7 3.32 7 4 7 C4 6.34 4 5.68 4 5 C3.34 5 2.68 5 2 5 C1.34 3.35 0.68 1.7 0 0 Z " fill="#090909" transform="translate(450,151)"/>
<path d="M0 0 C0.99 0.99 1.98 1.98 3 3 C2.67 3.99 2.34 4.98 2 6 C2.66 6.33 3.32 6.66 4 7 C3.01 7 2.02 7 1 7 C-1.1875 4.5 -1.1875 4.5 -3 2 C-2.01 2 -1.02 2 0 2 C0 1.34 0 0.68 0 0 Z " fill="#CDCDCD" transform="translate(240,402)"/>
<path d="M0 0 C0.66 0.33 1.32 0.66 2 1 C-0.3125 3.5 -0.3125 3.5 -3 6 C-3.99 6 -4.98 6 -6 6 C-6.33 5.01 -6.66 4.02 -7 3 C-4.69631264 1.93347808 -2.35981813 0.93578995 0 0 Z " fill="#E5E5E5" transform="translate(335,391)"/>
<path d="M0 0 C0.66 1.32 1.32 2.64 2 4 C-0.64 4.33 -3.28 4.66 -6 5 C-6 3.68 -6 2.36 -6 1 C-4.02 0.67 -2.04 0.34 0 0 Z " fill="#131313" transform="translate(344,322)"/>
<path d="M0 0 C2.4375 0.6875 2.4375 0.6875 5 2 C5.8125 4.625 5.8125 4.625 6 7 C5.01 7 4.02 7 3 7 C0.64276511 4.46815512 0 3.52809907 0 0 Z " fill="#1B1B1B" transform="translate(360,192)"/>
<path d="M0 0 C0.66 0.33 1.32 0.66 2 1 C-1.75 4 -1.75 4 -4 4 C-4.33 4.66 -4.66 5.32 -5 6 C-6.32 5.34 -7.64 4.68 -9 4 C-7.54618103 3.30300448 -6.08677047 2.61766134 -4.625 1.9375 C-3.40683594 1.36322266 -3.40683594 1.36322266 -2.1640625 0.77734375 C-1.44992187 0.52082031 -0.73578125 0.26429687 0 0 Z " fill="#DFDFDF" transform="translate(333,111)"/>
<path d="M0 0 C0.33 0.66 0.66 1.32 1 2 C0.34 2 -0.32 2 -1 2 C-1.66 3.98 -2.32 5.96 -3 8 C-3.99 8 -4.98 8 -6 8 C-4.125 3.25 -4.125 3.25 -3 1 C-2.01 0.67 -1.02 0.34 0 0 Z " fill="#0B0907" transform="translate(231,31)"/>
<path d="M0 0 C0.66 0.33 1.32 0.66 2 1 C1.67 1.66 1.34 2.32 1 3 C0.34 3 -0.32 3 -1 3 C-1 3.66 -1 4.32 -1 5 C-2.32 5.33 -3.64 5.66 -5 6 C-4.75 4.125 -4.75 4.125 -4 2 C-2.0625 0.6875 -2.0625 0.6875 0 0 Z " fill="#1B1B1B" transform="translate(318,439)"/>
<path d="M0 0 C0.66 0.33 1.32 0.66 2 1 C1.4375 2.9375 1.4375 2.9375 0 5 C-3.625 5.75 -3.625 5.75 -7 6 C-6.21625 5.38125 -5.4325 4.7625 -4.625 4.125 C-2.03162353 2.10141339 -2.03162353 2.10141339 0 0 Z " fill="#232323" transform="translate(321,259)"/>
<path d="M0 0 C1.32 0.66 2.64 1.32 4 2 C3.67 2.99 3.34 3.98 3 5 C2.34 5 1.68 5 1 5 C0.67 5.66 0.34 6.32 0 7 C-0.38133299 5.0085944 -0.71325582 3.00720923 -1 1 C-0.67 0.67 -0.34 0.34 0 0 Z " fill="#DBDBDB" transform="translate(234,152)"/>
<path d="M0 0 C0.66 0.99 1.32 1.98 2 3 C0.35 4.98 -1.3 6.96 -3 9 C-4 6 -4 6 -4 4 C-2.68 3.67 -1.36 3.34 0 3 C0 2.01 0 1.02 0 0 Z " fill="#1B1B1B" transform="translate(280,146)"/>
<path d="M0 0 C1.98 0.66 3.96 1.32 6 2 C6 2.66 6 3.32 6 4 C6.66 4.33 7.32 4.66 8 5 C7.01 5.33 6.02 5.66 5 6 C1.8125 4.0625 1.8125 4.0625 -1 2 C-0.67 1.34 -0.34 0.68 0 0 Z " fill="#E6E6E6" transform="translate(191,146)"/>
<path d="M0 0 C0.99 0.33 1.98 0.66 3 1 C2.34 3.97 1.68 6.94 1 10 C0.67 10 0.34 10 0 10 C0 6.7 0 3.4 0 0 Z " fill="#E7BF34" transform="translate(280,80)"/>
<path d="M0 0 C0.33 0 0.66 0 1 0 C1 2.31 1 4.62 1 7 C0.34 7 -0.32 7 -1 7 C-1 7.99 -1 8.98 -1 10 C-1.66 10 -2.32 10 -3 10 C-2.39009109 6.44219804 -1.4216319 3.3171411 0 0 Z " fill="#D9AE46" transform="translate(239,56)"/>
<path d="M0 0 C1.32 0 2.64 0 4 0 C4 2.64 4 5.28 4 8 C1.84622436 5.37801226 0.59927826 3.35595828 0 0 Z " fill="#220E04" transform="translate(272,48)"/>
<path d="M0 0 C0.99 0.33 1.98 0.66 3 1 C2.67 1.99 2.34 2.98 2 4 C0.0625 4.5625 0.0625 4.5625 -2 5 C-2.66 5.66 -3.32 6.32 -4 7 C-4 4 -4 4 -2 1.8125 C-1.34 1.214375 -0.68 0.61625 0 0 Z " fill="#0D0B0A" transform="translate(245,10)"/>
<path d="M0 0 C2.52588702 2.36292656 3.88820837 3.66462511 5 7 C3.68 6.67 2.36 6.34 1 6 C1 5.34 1 4.68 1 4 C0.34 4 -0.32 4 -1 4 C-0.67 2.68 -0.34 1.36 0 0 Z " fill="#1F1F1F" transform="translate(248,483)"/>
<path d="M0 0 C1.875 0.3125 1.875 0.3125 4 1 C4.66 1.99 5.32 2.98 6 4 C4.68 4.99 3.36 5.98 2 7 C1.34 4.69 0.68 2.38 0 0 Z " fill="#101010" transform="translate(236,472)"/>
<path d="M0 0 C3 0 3 0 5 1 C5.33 1.66 5.66 2.32 6 3 C5.67 3.66 5.34 4.32 5 5 C2.525 4.01 2.525 4.01 0 3 C0 2.01 0 1.02 0 0 Z " fill="#1B1B1B" transform="translate(192,338)"/>
<path d="M0 0 C0.33 0 0.66 0 1 0 C1.36923077 7.50769231 1.36923077 7.50769231 -0.5 10 C-0.995 10.33 -1.49 10.66 -2 11 C-2 6.91621923 -1.19287411 3.87684087 0 0 Z " fill="#222222" transform="translate(366,252)"/>
<path d="M0 0 C-2.05233685 2.2477975 -3.00667261 3.0022242 -6 4 C-8.1875 3.0625 -8.1875 3.0625 -10 2 C-8.71211992 1.46987262 -7.41953322 0.9511671 -6.125 0.4375 C-5.40570313 0.14746094 -4.68640625 -0.14257812 -3.9453125 -0.44140625 C-2 -1 -2 -1 0 0 Z " fill="#D6D6D6" transform="translate(350,160)"/>
<path d="M0 0 C1.134375 0.020625 2.26875 0.04125 3.4375 0.0625 C2.4475 0.3925 1.4575 0.7225 0.4375 1.0625 C0.4375 1.7225 0.4375 2.3825 0.4375 3.0625 C-1.5425 4.0525 -1.5425 4.0525 -3.5625 5.0625 C-4.125 3.125 -4.125 3.125 -4.5625 1.0625 C-3.5625 0.0625 -3.5625 0.0625 0 0 Z " fill="#373737" transform="translate(158.5625,135.9375)"/>
<path d="M0 0 C0.66 0 1.32 0 2 0 C2 0.66 2 1.32 2 2 C2.66 2 3.32 2 4 2 C4 3.65 4 5.3 4 7 C3.01 7.495 3.01 7.495 2 8 C0.74335022 5.09399739 0 3.20395416 0 0 Z " fill="#231206" transform="translate(276,56)"/>
<path d="M0 0 C1.32 0.33 2.64 0.66 4 1 C4 1.66 4 2.32 4 3 C5.32 3.66 6.64 4.32 8 5 C7.34 5 6.68 5 6 5 C5.67 5.66 5.34 6.32 5 7 C3.35 4.69 1.7 2.38 0 0 Z " fill="#1F1F1F" transform="translate(243,440)"/>
<path d="M0 0 C-0.33 0.99 -0.66 1.98 -1 3 C-0.34 3.33 0.32 3.66 1 4 C-0.65 3.67 -2.3 3.34 -4 3 C-4 2.34 -4 1.68 -4 1 C-4.66 0.67 -5.32 0.34 -6 0 C-3 -1 -3 -1 0 0 Z " fill="#D6D6D6" transform="translate(153,419)"/>
<path d="M0 0 C0.66 0.33 1.32 0.66 2 1 C0.90716423 2.03295436 -0.19970579 3.05107835 -1.3125 4.0625 C-1.92738281 4.63097656 -2.54226563 5.19945312 -3.17578125 5.78515625 C-3.77777344 6.18605469 -4.37976563 6.58695312 -5 7 C-5.99 6.67 -6.98 6.34 -8 6 C-5.36 4.02 -2.72 2.04 0 0 Z " fill="#282828" transform="translate(295,390)"/>
<path d="M0 0 C2.475 0.99 2.475 0.99 5 2 C4.67 2.66 4.34 3.32 4 4 C2.35 4 0.7 4 -1 4 C-0.67 2.68 -0.34 1.36 0 0 Z " fill="#141414" transform="translate(202,443)"/>
<path d="M0 0 C0.99 0.495 0.99 0.495 2 1 C1.01 1.495 1.01 1.495 0 2 C0 1.34 0 0.68 0 0 Z M-4 5 C-3.34 5.66 -2.68 6.32 -2 7 C-2.99 7.66 -3.98 8.32 -5 9 C-5 6 -5 6 -4 5 Z " fill="#F3F3F3" transform="translate(288,422)"/>
<path d="M0 0 C0.66 0.33 1.32 0.66 2 1 C-0.35277269 3.72426311 -2.62496331 4.8141763 -6 6 C-5 3 -5 3 -2.5625 1.25 C-1.716875 0.8375 -0.87125 0.425 0 0 Z " fill="#2C2C2C" transform="translate(326,311)"/>
<path d="M0 0 C0.33 0.66 0.66 1.32 1 2 C0.01 2.99 -0.98 3.98 -2 5 C-2 2 -2 2 0 0 Z M-7 6 C-6.34 6.33 -5.68 6.66 -5 7 C-6.98 7.99 -6.98 7.99 -9 9 C-8.34 8.01 -7.68 7.02 -7 6 Z " fill="#DEDEDE" transform="translate(329,169)"/>
<path d="M0 0 C2.31 1.98 4.62 3.96 7 6 C6.67 6.66 6.34 7.32 6 8 C1.3125 4.38671875 1.3125 4.38671875 0 3 C0 2.01 0 1.02 0 0 Z " fill="#0F0E0C" transform="translate(243,129)"/>
<path d="M0 0 C4 4.625 4 4.625 4 8 C3.01 7.67 2.02 7.34 1 7 C0.67 4.69 0.34 2.38 0 0 Z " fill="#E9D371" transform="translate(232,88)"/>
<path d="M0 0 C1.32 0.33 2.64 0.66 4 1 C4 2.32 4 3.64 4 5 C2.68 5 1.36 5 0 5 C0 3.35 0 1.7 0 0 Z " fill="#F4C32C" transform="translate(268,47)"/>
</svg>
